<?xml version="1.0" standalone="no"?>
<!DOCTYPE svg PUBLIC "-//W3C//DTD SVG 20010904//EN"
 "http://www.w3.org/TR/2001/REC-SVG-20010904/DTD/svg10.dtd">
<svg version="1.0" xmlns="http://www.w3.org/2000/svg"
 width="260.000000pt" height="260.000000pt" viewBox="0 0 260.000000 260.000000"
 preserveAspectRatio="xMidYMid meet">
<metadata>
Created by potrace 1.11, written by Peter Selinger 2001-2013
</metadata>
<g transform="translate(0.000000,260.000000) scale(0.100000,-0.100000)"
fill="#000000" stroke="none">
<path d="M1480 2444 c-100 -17 -129 -26 -123 -40 4 -12 0 -14 -21 -8 -17 4
-26 2 -26 -6 0 -6 5 -8 11 -4 10 6 28 -11 29 -27 0 -7 -59 -23 -73 -20 -4 1
-20 -11 -35 -25 -15 -15 -21 -23 -13 -19 9 5 7 -1 -4 -19 -10 -14 -22 -26 -29
-26 -8 0 -8 -2 0 -8 7 -4 -2 -13 -22 -23 -36 -17 -46 -9 -16 13 18 13 22 31
10 43 -4 4 -13 -5 -20 -21 -7 -16 -15 -31 -19 -34 -3 -3 -10 -16 -14 -29 -5
-18 -4 -22 6 -17 8 4 5 0 -5 -8 -11 -9 -16 -16 -12 -16 5 0 2 -8 -5 -17 -12
-15 -12 -16 3 -10 12 4 15 2 11 -8 -3 -8 -9 -12 -14 -9 -5 3 -9 -4 -9 -16 0
-17 3 -19 20 -10 10 6 24 18 29 28 9 15 10 15 8 -5 0 -12 -14 -28 -29 -38 -27
-15 -28 -20 -27 -83 1 -40 7 -71 15 -79 13 -14 11 -46 -7 -108 -4 -16 -11 -45
-14 -64 -3 -19 -10 -43 -16 -53 -15 -27 -25 -163 -12 -155 13 8 6 -68 -14
-148 -8 -33 -16 -79 -17 -102 -2 -42 -6 -49 -83 -135 -75 -82 -47 -112 47 -52
47 31 64 49 80 86 11 26 20 57 20 69 0 12 16 57 35 100 20 43 44 109 55 146
10 37 25 86 33 108 9 22 12 45 7 50 -12 16 0 72 20 90 20 18 17 45 -5 45 -7 0
-16 -7 -19 -16 -3 -9 -11 -12 -18 -8 -7 4 -10 4 -6 -1 9 -10 -9 -45 -24 -45
-6 0 -8 11 -6 25 3 14 1 25 -3 25 -8 0 -13 -29 -10 -56 1 -6 -6 -11 -14 -11
-22 0 -19 43 5 67 11 11 20 28 20 38 -1 15 -2 15 -15 -2 -8 -11 -15 -15 -15
-8 0 6 11 18 24 27 17 11 22 22 18 40 -2 15 0 25 7 25 7 0 9 -6 6 -12 -4 -7 0
-5 8 5 8 9 19 17 25 17 6 0 9 7 5 16 -4 12 -14 14 -42 9 -20 -3 -31 -2 -26 2
14 11 15 43 2 43 -5 0 -2 9 7 19 10 11 15 25 11 31 -4 6 -1 19 6 28 11 13 9
13 -8 -2 -12 -10 -22 -21 -21 -25 2 -22 -4 -41 -12 -36 -5 3 -7 0 -4 -8 7 -20
-8 -28 -22 -12 -9 9 -6 22 14 52 31 49 61 71 72 53 6 -9 14 -8 34 5 15 10 26
13 26 6 0 -17 48 9 53 29 3 11 41 36 93 62 108 53 180 62 214 28 l22 -22 -21
-19 c-28 -27 -27 -41 3 -29 13 5 27 6 30 3 3 -4 6 -1 6 5 0 23 18 12 30 -18 7
-17 27 -37 49 -47 24 -12 37 -26 40 -43 1 -14 12 -37 23 -52 11 -16 15 -28 10
-28 -6 0 -8 -8 -5 -18 5 -22 -37 -74 -45 -53 -3 10 -8 8 -17 -9 -13 -24 -13
-24 -20 8 -3 18 -11 30 -16 26 -5 -3 -9 -1 -9 4 0 5 -9 12 -19 15 -14 3 -18 1
-14 -9 3 -8 0 -14 -6 -14 -6 0 -11 5 -11 10 0 6 -4 10 -10 10 -5 0 -7 -7 -4
-15 4 -8 -1 -17 -10 -21 -11 -4 -14 -14 -11 -33 5 -25 5 -25 -5 -3 -5 13 -8
28 -4 33 3 5 0 9 -6 9 -7 0 -14 -9 -17 -20 -3 -11 -9 -20 -14 -20 -11 0 -40
-56 -33 -63 3 -3 -8 -4 -25 -3 -24 2 -28 -1 -22 -13 5 -9 11 -32 14 -51 5 -30
4 -32 -5 -12 -13 27 -32 30 -23 3 3 -11 0 -23 -6 -27 -8 -4 -9 -3 -5 4 4 7 3
12 -2 12 -15 0 -22 -28 -9 -34 9 -3 9 -7 0 -13 -6 -4 -15 -24 -21 -43 l-9 -35
-8 28 c-7 27 -23 38 -22 15 0 -7 -1 -33 -3 -58 l-3 -45 -7 35 c-7 31 -7 32 -9
8 -1 -30 -21 -39 -21 -10 -1 27 -30 -60 -30 -90 0 -15 -5 -30 -11 -33 -6 -4
-8 -14 -5 -22 3 -8 1 -11 -4 -8 -14 9 -35 -15 -38 -45 -5 -47 -8 -58 -23 -76
-12 -16 -12 -17 1 -9 13 8 13 6 2 -8 -8 -9 -11 -21 -7 -28 6 -8 10 -7 16 2 6
10 9 4 9 -18 0 -17 -4 -35 -10 -38 -5 -3 -10 -15 -10 -26 0 -11 5 -17 10 -14
16 10 12 0 -10 -25 -25 -29 -27 -55 -2 -46 13 6 12 2 -5 -15 -17 -17 -19 -25
-11 -39 8 -13 8 -26 -2 -49 -14 -35 -25 -39 -38 -15 -6 11 -17 15 -31 11 -11
-3 -24 -1 -27 4 -3 5 -15 9 -26 9 -11 0 -26 7 -33 16 -10 14 -18 9 -63 -42
-28 -33 -72 -89 -99 -126 -26 -37 -85 -114 -130 -172 -46 -58 -83 -110 -83
-117 0 -6 -9 -23 -19 -38 -11 -14 -30 -47 -43 -71 -36 -66 -52 -93 -66 -111
-7 -9 -15 -26 -17 -39 -2 -13 -12 -31 -21 -41 -33 -37 -2 -18 48 29 48 44 51
45 44 19 -5 -20 -2 -29 8 -33 22 -9 97 44 135 93 17 24 49 54 71 68 21 13 52
45 69 69 37 53 57 69 49 38 l-6 -21 29 21 c16 12 47 49 71 82 23 34 47 64 54
68 14 9 83 123 115 190 15 30 34 53 53 62 l31 15 32 -51 c18 -29 37 -54 43
-58 8 -5 15 -29 19 -61 1 -4 15 -12 31 -19 17 -7 37 -22 45 -32 13 -20 13 -20
25 2 9 16 9 25 0 35 -17 20 -5 33 25 27 14 -2 25 -6 25 -7 0 -2 -45 -95 -100
-206 -54 -111 -97 -206 -94 -210 2 -4 0 -10 -5 -13 -5 -4 -36 23 -68 59 -69
79 -83 70 -21 -12 25 -32 48 -64 52 -71 9 -15 -35 -86 -131 -208 -34 -45 -63
-85 -63 -88 0 -3 7 -6 15 -6 8 0 47 44 87 97 83 114 127 163 145 163 19 0 129
-57 193 -100 65 -43 91 -54 87 -37 -1 7 4 11 11 9 25 -5 1 18 -26 25 -52 15
-243 137 -248 159 -4 14 18 72 61 165 37 79 68 145 69 146 1 2 16 -1 33 -6 36
-10 73 9 73 37 -1 16 -1 16 -11 0 -13 -24 -39 -23 -39 1 0 11 -6 21 -12 24
-22 7 39 84 181 230 l135 138 29 -31 c15 -16 34 -30 42 -30 23 0 36 36 29 78
-8 53 13 61 74 27 57 -32 67 -25 13 9 -23 15 -41 34 -41 43 0 9 -7 24 -16 34
-15 17 -14 21 14 59 39 53 151 170 163 170 21 0 7 15 -15 16 -24 2 -44 -19
-180 -186 -16 -19 -34 -35 -40 -35 -6 -1 -18 -4 -26 -8 -21 -9 -164 -47 -167
-43 -2 1 9 18 23 37 33 44 100 177 131 259 13 36 36 94 50 129 20 51 26 85 27
158 3 92 2 96 -33 155 -43 73 -80 112 -132 138 -38 20 -75 71 -61 85 7 7 9 13
11 45 1 14 8 20 26 20 14 0 48 9 77 20 40 15 54 17 60 7 5 -8 8 -5 8 9 0 26
-40 68 -80 83 -17 6 -44 16 -61 22 -16 7 -50 31 -75 55 -25 25 -60 48 -83 54
-48 13 -119 19 -151 14z m-270 -234 c0 -9 -32 -30 -46 -30 -4 0 1 9 11 20 19
21 35 26 35 10z m-35 -130 c-6 -9 -9 -9 -16 1 -10 17 0 34 13 21 6 -6 7 -16 3
-22z m393 -420 c-1 -23 -1 -24 -5 -2 -3 13 -9 19 -15 16 -8 -5 -9 -1 -5 10 4
10 7 23 8 29 1 23 18 -28 17 -53z m-428 10 c0 -5 -5 -10 -11 -10 -5 0 -8 -3
-6 -8 3 -4 -4 -23 -14 -42 l-20 -35 7 40 c4 22 7 46 7 53 0 14 37 17 37 2z
m-35 -310 c3 -5 1 -10 -4 -10 -6 0 -11 5 -11 10 0 6 2 10 4 10 3 0 8 -4 11
-10z m211 -36 c-4 -9 -9 -15 -11 -12 -3 3 -3 13 1 22 4 9 9 15 11 12 3 -3 3
-13 -1 -22z m-35 -25 c-6 -16 -10 -18 -10 -7 -1 22 12 55 16 42 2 -6 -1 -22
-6 -35z m39 -13 c0 -3 -4 -8 -10 -11 -5 -3 -10 -1 -10 4 0 6 5 11 10 11 6 0
10 -2 10 -4z m518 -189 c8 -9 -18 -42 -110 -135 -67 -67 -125 -122 -128 -122
-4 0 -13 7 -21 16 -7 8 -21 13 -31 11 -11 -3 -24 3 -32 14 -7 11 -20 17 -28
14 -8 -3 -23 7 -37 25 l-22 31 28 -4 c37 -5 79 10 127 44 22 16 44 29 50 29 5
0 24 15 41 34 43 48 139 73 163 43z m-392 -74 c-6 -31 -18 -53 -29 -53 -5 0
-3 8 6 18 10 10 14 21 11 25 -3 3 -3 10 1 16 10 16 15 13 11 -6z m-181 -103
c-10 -11 -22 -20 -28 -20 -5 0 1 11 14 24 28 29 40 25 14 -4z m169 -13 c27
-36 31 -53 17 -76 -14 -22 -49 -3 -76 43 -30 52 -31 54 -2 59 12 2 25 5 29 6
4 0 18 -14 32 -32z"/>
<path d="M1695 1930 c4 -6 11 -8 16 -5 14 9 11 15 -7 15 -8 0 -12 -5 -9 -10z"/>
<path d="M1250 1889 c0 -5 5 -7 10 -4 6 3 10 8 10 11 0 2 -4 4 -10 4 -5 0 -10
-5 -10 -11z"/>
<path d="M601 142 c8 -12 19 -24 26 -26 7 -3 46 -30 86 -61 41 -30 82 -55 92
-55 14 0 15 3 5 15 -7 8 -17 15 -22 15 -5 0 -52 30 -105 66 -56 40 -90 58 -82
46z"/>
<path d="M1686 36 c3 -7 16 -18 30 -25 39 -18 41 -13 4 14 -39 29 -41 30 -34
11z"/>
</g>
</svg>
